<svg width="24" height="24" viewBox="0 0 24 24" fill="none" xmlns="http://www.w3.org/2000/svg">
<g clip-path="url(#clip0_26_1740)">
<path d="M19.5 3H4.5L0 8.25L12 22.5L24 8.25L19.5 3ZM6.96 7.5H2.625L4.905 4.83L6.96 7.5ZM9.63 7.5L12 4.74L14.37 7.5H9.63ZM15 9L12 19.02L9 9H15ZM7.89 9L10.725 18.66L2.595 9H7.89ZM16.125 9H21.42L13.275 18.66L16.125 9ZM17.055 7.5L19.11 4.83L21.375 7.5H17.025H17.055ZM18 4.5L15.84 7.215L13.65 4.5H18ZM8.145 7.245L6 4.5H10.35L8.145 7.245Z" fill="#006A79"/>
</g>
<defs>
<clipPath id="clip0_26_1740">
<rect width="24" height="24" fill="white"/>
</clipPath>
</defs>
</svg>
