<svg width="24" height="24" viewBox="0 0 24 24" fill="none" xmlns="http://www.w3.org/2000/svg">
<path d="M12.0001 20.423C11.5695 20.423 11.2055 20.2744 10.9081 19.977C10.6108 19.6797 10.4621 19.3157 10.4621 18.885C10.4621 18.4544 10.6108 18.09 10.9081 17.792C11.2055 17.494 11.5695 17.3454 12.0001 17.346C12.4308 17.3467 12.7948 17.4954 13.0921 17.792C13.3895 18.0887 13.5381 18.4527 13.5381 18.884C13.5381 19.3154 13.3895 19.6797 13.0921 19.977C12.7948 20.2744 12.4308 20.423 12.0001 20.423ZM6.35015 15.35L5.32715 14.316C6.19515 13.448 7.19648 12.768 8.33115 12.276C9.46582 11.784 10.6898 11.5384 12.0031 11.539C13.3165 11.5397 14.5395 11.7864 15.6721 12.279C16.8048 12.7717 17.8051 13.4544 18.6731 14.327L17.6501 15.35C16.9168 14.6167 16.0668 14.0417 15.1001 13.625C14.1335 13.2084 13.1001 13 12.0001 13C10.9001 13 9.86681 13.2084 8.90015 13.625C7.93348 14.0417 7.08348 14.6167 6.35015 15.35ZM2.10015 11.1L1.07715 10.077C2.46982 8.67705 4.09482 7.57038 5.95215 6.75705C7.80948 5.94371 9.82548 5.53805 12.0001 5.54005C14.1748 5.54205 16.1908 5.94838 18.0481 6.75905C19.9055 7.56971 21.5305 8.67605 22.9231 10.078L21.9001 11.1C20.6168 9.81671 19.1295 8.81271 17.4381 8.08805C15.7468 7.36338 13.9341 7.00071 12.0001 7.00005C10.0661 6.99938 8.25382 7.36205 6.56315 8.08805C4.87248 8.81405 3.38481 9.81805 2.10015 11.1Z" fill="#006A79"/>
</svg>
