<svg width="633" height="273" viewBox="0 0 633 273" fill="none" xmlns="http://www.w3.org/2000/svg">
    <g clip-path="url(#clip0_626_180)">
        <path opacity="0.5" d="M17.5017 356.576C-3.44613 377.524 -3.44612 411.487 17.5018 432.435C38.4496 453.383 72.4129 453.383 93.3607 432.435L385.905 139.891C406.853 118.943 406.853 84.9802 385.905 64.0324C364.957 43.0845 330.994 43.0845 310.046 64.0323L17.5017 356.576Z" fill="url(#paint0_linear_626_180)"/>
        <path opacity="0.6" d="M-179.143 629.528C-246.443 696.827 -246.443 805.942 -179.143 873.242C-111.843 940.542 -2.72816 940.542 64.5717 873.242L572.242 365.572C639.542 298.272 639.542 189.157 572.242 121.857C504.942 54.5574 395.827 54.5574 328.528 121.857L-179.143 629.528Z" fill="url(#paint1_linear_626_180)"/>
    </g>
    <defs>
        <linearGradient id="paint0_linear_626_180" x1="228.237" y1="129.968" x2="219.136" y2="343.359" gradientUnits="userSpaceOnUse">
            <stop stop-color="white"/>
            <stop offset="0.808511" stop-color="white" stop-opacity="0"/>
        </linearGradient>
        <linearGradient id="paint1_linear_626_180" x1="545.54" y1="157.02" x2="92.8631" y2="632.834" gradientUnits="userSpaceOnUse">
            <stop stop-color="white"/>
            <stop offset="0.808511" stop-color="white" stop-opacity="0"/>
        </linearGradient>
        <clipPath id="clip0_626_180">
            <rect width="769" height="1057" fill="white"/>
        </clipPath>
    </defs>
</svg>