<svg width="340" height="699" viewBox="0 0 340 699" fill="none" xmlns="http://www.w3.org/2000/svg">
    <path opacity="0.6" d="M-273.402 442.207C-320.676 489.481 -320.677 566.128 -273.402 613.402C-226.128 660.677 -149.481 660.677 -102.207 613.402L254.402 256.793C301.677 209.519 301.677 132.872 254.402 85.5978C207.128 38.3235 130.481 38.3235 83.2069 85.5978L-273.402 442.207Z" fill="url(#paint0_linear_626_200)"/>
    <path opacity="0.6" d="M-66.6525 445.423C-79.547 458.317 -79.547 479.223 -66.6525 492.118C-53.758 505.012 -32.852 505.012 -19.9575 492.118L160.118 312.042C173.012 299.148 173.012 278.242 160.118 265.347C147.223 252.453 126.317 252.453 113.423 265.347L-66.6525 445.423Z" fill="url(#paint1_linear_626_200)"/>
    <defs>
        <linearGradient id="paint0_linear_626_200" x1="235.646" y1="110.297" x2="-82.3338" y2="444.53" gradientUnits="userSpaceOnUse">
            <stop stop-color="white"/>
            <stop offset="0.808511" stop-color="white" stop-opacity="0"/>
        </linearGradient>
        <linearGradient id="paint1_linear_626_200" x1="151.593" y1="275.493" x2="17.1055" y2="420.97" gradientUnits="userSpaceOnUse">
            <stop stop-color="white"/>
            <stop offset="0.808511" stop-color="white" stop-opacity="0"/>
        </linearGradient>
    </defs>
</svg>