<svg width="32" height="32" viewBox="0 0 32 32" fill="none" xmlns="http://www.w3.org/2000/svg">
<path d="M20 28V17.3333C20 16.9797 19.8595 16.6406 19.6095 16.3905C19.3594 16.1405 19.0203 16 18.6667 16H13.3333C12.9797 16 12.6406 16.1405 12.3905 16.3905C12.1405 16.6406 12 16.9797 12 17.3333V28" stroke="#006A79" stroke-width="1.5" stroke-linecap="round" stroke-linejoin="round"/>
<path d="M4 13.333C3.99991 12.9451 4.08445 12.5618 4.24772 12.2099C4.41099 11.858 4.64906 11.546 4.94533 11.2956L14.2787 3.29696C14.76 2.89018 15.3698 2.66699 16 2.66699C16.6302 2.66699 17.24 2.89018 17.7213 3.29696L27.0547 11.2956C27.3509 11.546 27.589 11.858 27.7523 12.2099C27.9156 12.5618 28.0001 12.9451 28 13.333V25.333C28 26.0402 27.719 26.7185 27.219 27.2186C26.7189 27.7187 26.0406 27.9996 25.3333 27.9996H6.66667C5.95942 27.9996 5.28115 27.7187 4.78105 27.2186C4.28095 26.7185 4 26.0402 4 25.333V13.333Z" stroke="#006A79" stroke-width="1.5" stroke-linecap="round" stroke-linejoin="round"/>
</svg>
