<svg width="32" height="32" viewBox="0 0 32 32" fill="none" xmlns="http://www.w3.org/2000/svg">
<path d="M26.6663 13.3337C26.6663 19.991 19.281 26.9243 16.801 29.0657C16.57 29.2394 16.2887 29.3333 15.9997 29.3333C15.7106 29.3333 15.4294 29.2394 15.1983 29.0657C12.7183 26.9243 5.33301 19.991 5.33301 13.3337C5.33301 10.5047 6.45681 7.79157 8.4572 5.79119C10.4576 3.7908 13.1707 2.66699 15.9997 2.66699C18.8287 2.66699 21.5418 3.7908 23.5421 5.79119C25.5425 7.79157 26.6663 10.5047 26.6663 13.3337Z" stroke="#006A79" stroke-width="1.5" stroke-linecap="round" stroke-linejoin="round"/>
<path d="M16 17.333C18.2091 17.333 20 15.5421 20 13.333C20 11.1239 18.2091 9.33301 16 9.33301C13.7909 9.33301 12 11.1239 12 13.333C12 15.5421 13.7909 17.333 16 17.333Z" stroke="#006A79" stroke-width="1.5" stroke-linecap="round" stroke-linejoin="round"/>
</svg>
