<svg width="32" height="32" viewBox="0 0 32 32" fill="none" xmlns="http://www.w3.org/2000/svg">
<path d="M13.333 2.66699V5.33366" stroke="#006A79" stroke-width="1.5" stroke-linecap="round" stroke-linejoin="round"/>
<path d="M18.667 2.66699V5.33366" stroke="#006A79" stroke-width="1.5" stroke-linecap="round" stroke-linejoin="round"/>
<path d="M21.3333 10.667C21.687 10.667 22.0261 10.8075 22.2761 11.0575C22.5262 11.3076 22.6667 11.6467 22.6667 12.0003V22.667C22.6667 24.0815 22.1048 25.438 21.1046 26.4382C20.1044 27.4384 18.7478 28.0003 17.3333 28.0003H9.33333C7.91885 28.0003 6.56229 27.4384 5.5621 26.4382C4.5619 25.438 4 24.0815 4 22.667V12.0003C4 11.6467 4.14048 11.3076 4.39052 11.0575C4.64057 10.8075 4.97971 10.667 5.33333 10.667H24C25.4145 10.667 26.771 11.2289 27.7712 12.2291C28.7714 13.2293 29.3333 14.5858 29.3333 16.0003C29.3333 17.4148 28.7714 18.7714 27.7712 19.7716C26.771 20.7718 25.4145 21.3337 24 21.3337H22.6667" stroke="#006A79" stroke-width="1.5" stroke-linecap="round" stroke-linejoin="round"/>
<path d="M8 2.66699V5.33366" stroke="#006A79" stroke-width="1.5" stroke-linecap="round" stroke-linejoin="round"/>
</svg>
